<svg xmlns="http://www.w3.org/2000/svg" fill="none" viewBox="0 0 24 24" id="Cloudinary--Streamline-Svg-Logos" height="24" width="24">
  <desc>
    Cloudinary Streamline Icon: https://streamlinehq.com
  </desc>
  <path fill="#3448c5" d="M7.79515 11.154325c0.249775 0.000475 0.485175 0.1168 0.6373 0.314875 0.0054 0.007175 0.0135 0.011775 0.0224 0.01275 0.0089 0.001 0.0178 -0.00175 0.0246 -0.007575l0.268375 -0.21385c0.006925 -0.005525 0.011375 -0.0136 0.01235 -0.022425 0.000975 -0.008825 -0.001625 -0.01765 -0.007175 -0.024575 -0.2315 -0.300425 -0.589375 -0.4763 -0.96865 -0.4761 -0.70075 0 -1.268975 0.60395 -1.268975 1.346525s0.5701 1.346525 1.268975 1.346525c0.379275 0.001275 0.737375 -0.17465 0.968175 -0.475625 0.005775 -0.006875 0.008425 -0.015825 0.007375 -0.024725 -0.001075 -0.008925 -0.0058 -0.016975 -0.013025 -0.022275l-0.267875 -0.2115c-0.006925 -0.005575 -0.015775 -0.00815 -0.024575 -0.007175 -0.008825 0.000975 -0.0169 0.0054 -0.022425 0.01235 -0.152875 0.19675 -0.387675 0.312325 -0.63685 0.313475 -0.4789 0 -0.8535 -0.4089 -0.8535 -0.9301 0 -0.521225 0.3746 -0.930575 0.8535 -0.930575Zm1.30375 -0.4935h0.336525c0.018425 0 0.03335 0.01495 0.03335 0.033375v2.668575c0 0.018175 -0.014725 0.0329 -0.0329 0.0329h-0.3365c-0.018425 0 -0.033375 -0.014925 -0.033375 -0.03335V10.6942c-0.000125 -0.0088 0.0033 -0.0173 0.009475 -0.023575 0.00495 -0.005025 0.011325 -0.008275 0.0182 -0.009375l0.005225 -0.000425Zm1.51665 0.92305c-0.446025 0 -0.8972 0.31585 -0.8972 0.919775 0 0.530625 0.38585 0.93105 0.8972 0.93105s0.900975 -0.400425 0.900975 -0.93105c0 -0.530625 -0.387275 -0.919775 -0.900975 -0.919775Zm0.4949 0.919775c0 0.306425 -0.2129 0.537675 -0.4949 0.537675 -0.282 0 -0.490675 -0.23125 -0.490675 -0.537675s0.211025 -0.526375 0.490675 -0.526375c0.27965 0 0.4949 0.22605 0.4949 0.526375Zm2.21975 -0.881225h-0.3365c-0.008825 -0.000125 -0.0173 0.003275 -0.023575 0.009475 -0.006275 0.006175 -0.0098 0.014625 -0.0098 0.023425v0.892975c0 0.348725 -0.240625 0.472325 -0.44695 0.472325 -0.182375 0 -0.366125 -0.1377 -0.366125 -0.445525v-0.919775c0 -0.0088 -0.003525 -0.01725 -0.0098 -0.023425 -0.006275 -0.0062 -0.014775 -0.0096 -0.023575 -0.009475h-0.3365c-0.018175 0 -0.0329 0.014725 -0.0329 0.0329v0.963475c0 0.528725 0.239225 0.81965 0.67395 0.81965 0.157925 0 0.4136 -0.0907 0.509475 -0.290925l0.032425 0.0066v0.20865c0 0.01845 0.01495 0.033375 0.033375 0.033375h0.3365c0.018425 0 0.033375 -0.014925 0.033375 -0.033375v-1.70745c0 -0.0088 -0.003525 -0.01725 -0.0098 -0.023425 -0.006275 -0.0062 -0.014775 -0.0096 -0.023575 -0.009475Zm2.06655 -0.9616h-0.337c-0.0088 0 -0.01725 0.003525 -0.023425 0.0098 -0.006175 0.006275 -0.0096 0.014775 -0.009475 0.023575v1.192825l-0.020675 -0.0329c-0.10245 -0.164975 -0.322875 -0.27165 -0.561625 -0.27165 -0.411725 0 -0.828125 0.31725 -0.828125 0.923525 0 0.528725 0.35765 0.927275 0.8314 0.927275 0.180475 0 0.43475 -0.072375 0.55835 -0.2754l0.020675 -0.03385v0.23875c-0.000125 0.008825 0.0033 0.0173 0.009475 0.023575 0.006175 0.006275 0.014625 0.0098 0.023425 0.0098h0.337c0.0088 0 0.01725 -0.003525 0.023425 -0.0098 0.006175 -0.006275 0.0096 -0.01475 0.009475 -0.023575V10.6942c0.000125 -0.0088 -0.0033 -0.0173 -0.009475 -0.023575 -0.00495 -0.005025 -0.01135 -0.008275 -0.0182 -0.009375l-0.005225 -0.000425Zm-0.376 1.842825c0.00455 0.138 -0.0463 0.2721 -0.1412 0.3724 -0.0949 0.100275 -0.226 0.15845 -0.36405 0.1615 -0.2754 0 -0.491125 -0.235 -0.491125 -0.5339 0 -0.298925 0.215725 -0.526375 0.491125 -0.526375 0.284075 0.007175 0.5091 0.242275 0.50385 0.526375h0.0014Zm0.880275 -0.881225h0.336525c0.018175 0 0.0329 0.014725 0.0329 0.0329v1.70745c0 0.018175 -0.014725 0.0329 -0.0329 0.0329h-0.336525c-0.018425 0 -0.03335 -0.014925 -0.03335 -0.03335v-1.707c0.00025 -0.01825 0.015125 -0.0329 0.03335 -0.0329Zm0.182025 -0.90755 -0.01235 0c-0.0704 -0.001525 -0.13845 0.0254 -0.188775 0.07465 -0.0503 0.04925 -0.07865 0.116725 -0.07865 0.187125 0.00155 0.146225 0.1212 0.263575 0.267425 0.262275 0.06995 0.000875 0.137325 -0.026425 0.186925 -0.07575 0.0496 -0.04935 0.07725 -0.11655 0.07675 -0.186525 0.00115 -0.0701 -0.0263 -0.13765 -0.07605 -0.18705 -0.04685 -0.0465 -0.109625 -0.07315 -0.175275 -0.074725Zm1.5734 0.869c-0.147575 0 -0.40985 0.079425 -0.50995 0.290925l-0.032425 -0.006575v-0.2129c0 -0.0088 -0.003525 -0.01725 -0.0098 -0.023425 -0.006275 -0.0062 -0.014775 -0.0096 -0.023575 -0.009475h-0.3365c-0.018175 0 -0.0329 0.014725 -0.0329 0.0329v1.70745c-0.000125 0.008825 0.003275 0.0173 0.009475 0.023575 0.006175 0.006275 0.0146 0.0098 0.023425 0.0098h0.3365c0.018425 0 0.033375 -0.014925 0.033375 -0.033375v-0.892975c0 -0.3459 0.240625 -0.469975 0.44695 -0.469975 0.182375 0 0.366125 0.136775 0.366125 0.441775v0.921175c0 0.01845 0.01495 0.033375 0.033375 0.033375h0.33745c0.018425 0 0.033375 -0.014925 0.033375 -0.033375v-0.963c-0.00095 -0.5259 -0.24065 -0.8159 -0.6749 -0.8159Zm2.685025 0.03855h-0.3365c-0.0088 -0.000125 -0.0173 0.003275 -0.023575 0.009475 -0.006275 0.006175 -0.0098 0.014625 -0.0098 0.023425v0.235l-0.0202 -0.0329c-0.102925 -0.164975 -0.32335 -0.27165 -0.564 -0.27165 -0.411225 0 -0.8281 0.317225 -0.8281 0.923525 0 0.528725 0.35765 0.927275 0.831875 0.927275 0.18 0 0.43425 -0.072375 0.558325 -0.275425l0.020225 -0.033825v0.23545c0 0.01845 0.014925 0.033375 0.033375 0.033375h0.3365c0.0088 0 0.01725 -0.003525 0.023425 -0.0098 0.0062 -0.006275 0.0096 -0.01475 0.009475 -0.023575v-1.70745c0.000025 -0.017475 -0.0136 -0.0319 -0.031025 -0.0329Zm-0.375975 0.881225c0.00455 0.13825 -0.0465 0.27255 -0.1417 0.372875 -0.095225 0.10035 -0.226675 0.15835 -0.36495 0.161025 -0.275425 0 -0.490675 -0.235 -0.490675 -0.5339 0 -0.298925 0.21525 -0.526375 0.490675 -0.526375 0.2848 0.00615 0.51095 0.24155 0.5057 0.526375h0.00095Zm1.911425 -0.875125c-0.076725 -0.0311 -0.158775 -0.04705 -0.241575 -0.047 -0.2237 0 -0.386325 0.13395 -0.469975 0.38775l-0.030075 -0.004225v-0.309725c0 -0.0088 -0.00355 -0.01725 -0.0098 -0.023425 -0.006275 -0.0062 -0.014775 -0.0096 -0.023575 -0.009475h-0.336525c-0.0088 -0.000125 -0.017275 0.003275 -0.02355 0.009475 -0.006275 0.006175 -0.0098 0.014625 -0.0098 0.023425v1.70745c0 0.01845 0.014925 0.033375 0.03335 0.033375h0.340275c0.008825 0 0.01725 -0.003525 0.02345 -0.0098 0.006175 -0.006275 0.009575 -0.01475 0.00945 -0.023575V12.78c0 -0.0284 0.000475 -0.0558 0.001375 -0.08225l0.001675 -0.03895c0.00065 -0.012775 0.001425 -0.025275 0.0023 -0.037575l0.002925 -0.036175c0.0043 -0.047325 0.010175 -0.09105 0.017425 -0.131425l0.0057 -0.02965c0.0218 -0.10645 0.0536 -0.1881 0.091 -0.25045l0.010325 -0.01655c0.017425 -0.026775 0.03595 -0.04965 0.0551 -0.069175l0.011575 -0.011325c0.0097 -0.0091 0.01955 -0.0174 0.0295 -0.024925l0.011975 -0.0087c0.006 -0.004175 0.012025 -0.008075 0.018075 -0.011725l0.0121 -0.007 0.012125 -0.006375 0.0121 -0.005775 0.0121 -0.005175c0.002025 -0.0008 0.004025 -0.0016 0.00605 -0.002375l0.012025 -0.00435 0.01195 -0.003825 0.011875 -0.00335 0.01175 -0.00285 0.011625 -0.002425 0.011475 -0.002 0.0113 -0.0016 0.011125 -0.00125 0.0109 -0.000875 0.015925 -0.00075 0.0103 -0.000125c0.063625 0.00015 0.12665 0.012075 0.18585 0.035075l0.01765 0.007225c0.0091 0.00425 0.019575 0.00425 0.028675 0 0.008725 -0.0046 0.01495 -0.012875 0.016925 -0.02255l0.066725 -0.334175c0.003025 -0.01455 -0.003975 -0.029125 -0.0167 -0.03605l-0.00445 -0.002025Zm1.867275 0.008475c-0.006125 -0.0093 -0.0166 -0.0148 -0.027725 -0.0146h-0.362375c-0.01365 0.000175 -0.0259 0.0085 -0.031025 0.021175l-0.4385 1.136425 -0.442725 -1.136425c-0.005125 -0.012675 -0.01735 -0.021 -0.031 -0.021175h-0.369425c-0.010975 -0.00005 -0.021225 0.00545 -0.02725 0.0146 -0.00625 0.009125 -0.007475 0.020775 -0.0033 0.031l0.657975 1.615825 -0.3633 0.9442c-0.00465 0.010425 -0.003675 0.0225 0.002625 0.032025 0.006275 0.009525 0.017 0.015175 0.0284 0.015h0.3525c0.0136 0.00005 0.0258 -0.0084 0.03055 -0.021175l1.0274 -2.584925c0.004075 -0.008925 0.003875 -0.019125 -0.000375 -0.027775l-0.00245 -0.004175Z" stroke-width="0.25"></path>
  <path fill="#3448c5" d="M1.9135425 11.391725c0.00415 0 0.0081275 0.00165 0.0110425 0.004625l0.5221575 0.522625c0.0043075 0.004425 0.005575 0.010975 0.0032275 0.0167 -0.0023475 0.005725 -0.00786 0.0095 -0.0140375 0.009625h-0.1334775c-0.008645 -0.000025 -0.015725 0.00685 -0.0159775 0.0155v1.174975c0.0001875 0.074375 0.02975 0.14565 0.0822475 0.198325l0.0780175 0.078025c0.0043075 0.004425 0.005575 0.010975 0.0032275 0.0167 -0.0023475 0.005725 -0.00786 0.0095 -0.0140375 0.009625H1.8202475c-0.15574 0 -0.2819925 -0.126275 -0.2819925 -0.282v-1.19565c0 -0.008575 -0.0069425 -0.0155 -0.0155075 -0.0155H1.39115c-0.0062625 0.00005 -0.0119475 -0.00365 -0.014415 -0.0094 -0.002465 -0.005775 -0.00123 -0.01245 0.003135 -0.016925l0.5226275 -0.522625c0.002915 -0.002975 0.0068925 -0.004625 0.011045 -0.004625Zm1.1547575 0.302675c0.00415 0 0.008125 0.00165 0.01105 0.004625l0.522625 0.520725c0.00435 0.0045 0.0056 0.011175 0.003125 0.016925 -0.00245 0.00575 -0.00815 0.009475 -0.0144 0.0094h-0.133475c-0.00865 0.00025 -0.015525 0.00735 -0.015525 0.015975v0.873725c0.000075 0.0743 0.02945 0.145575 0.081775 0.198325l0.0785 0.078025c0.00435 0.004475 0.0056 0.01115 0.003125 0.016925 -0.00245 0.00575 -0.00815 0.00945 -0.0144 0.0094h-0.614275c-0.15575 0 -0.282 -0.126275 -0.282 -0.282V12.263c0 -0.00865 -0.006875 -0.015725 -0.0155 -0.015975h-0.133025c-0.006175 -0.000125 -0.011675 -0.0039 -0.014025 -0.009625 -0.00235 -0.0057 -0.001075 -0.012275 0.003225 -0.0167l0.52215 -0.521675c0.002925 -0.002975 0.0069 -0.004625 0.01105 -0.004625Zm1.155 0.299425c0.004075 0 0.007975 0.00165 0.0108 0.004575l0.522625 0.52215c0.00465 0.004375 0.006125 0.011175 0.00375 0.0171 -0.0024 0.0059 -0.008175 0.00975 -0.01455 0.0097h-0.13395c-0.008575 0 -0.0155 0.006925 -0.0155 0.0155v0.572925c0.000175 0.074375 0.02975 0.14565 0.08225 0.198325l0.078 0.078025c0.004325 0.004425 0.005575 0.010975 0.003225 0.0167 -0.002325 0.005725 -0.00785 0.0095 -0.014025 0.009625h-0.61615c-0.15575 0 -0.282 -0.126275 -0.282 -0.282v-0.5936c0 -0.008575 -0.00695 -0.0155 -0.0155 -0.0155h-0.1316c-0.0064 0.00005 -0.012175 -0.0038 -0.01455 -0.0097 -0.0024 -0.005925 -0.0009 -0.012725 0.003725 -0.0171l0.522625 -0.52215c0.00285 -0.002925 0.00675 -0.004575 0.010825 -0.004575ZM3.057725 9.725c0.820925 0.005975 1.544975 0.539075 1.794425 1.3212 0.60965 0.079575 1.0671 0.5968 1.07155 1.211625 0 0.50745 -0.317325 0.9291 -0.829725 1.104675l-0.01905 0.006375 -0.0235 0.007525v-0.3788c0.3257 -0.13725 0.516975 -0.408425 0.516975 -0.739775 -0.001675 -0.46755 -0.37195 -0.849325 -0.8373 -0.867125l-0.015725 -0.000475h-0.141l-0.033825 -0.1344c-0.166075 -0.685525 -0.777475 -1.17 -1.482825 -1.174975 -0.5803625 -0.0028 -1.11036 0.327 -1.3647 0.8473l-0.0523125 0.1077 -0.0986975 0.01035c-0.4457525 0.0477 -0.8117625 0.373725 -0.9104625 0.811025 -0.09729 0.43105 0.086405 0.876025 0.4575875 1.113275l0.0162575 0.010175v0.399475h-0.00235l-0.03525 -0.015975c-0.5575 -0.2563 -0.88405725 -0.84485 -0.8064675 -1.453525 0.07759 -0.60865 0.54136 -1.096475 1.14533 -1.204725C1.7329625 10.0985 2.368215 9.721125 3.057725 9.725Z" stroke-width="0.25"></path>
</svg>